<?xml version="1.0" encoding="utf-8"?>
<!-- Generator: Adobe Illustrator 23.0.1, SVG Export Plug-In . SVG Version: 6.00 Build 0)  -->
<svg version="1.1" id="Layer_1" xmlns="http://www.w3.org/2000/svg" xmlns:xlink="http://www.w3.org/1999/xlink" x="0px" y="0px"
	 viewBox="0 0 20 20" style="enable-background:new 0 0 20 20;" xml:space="preserve">
<style type="text/css">
	.st0{fill:#00A551;}
	.st1{fill:#F05A28;}
	.st2{fill:#00ADEE;}
</style>
<g>
	<path class="st0" d="M13.9,4.2c0.6,0.7,1.2,1.3,1.9,1.9c-1,1-2,2-3,3c-2.1,2.1-4.2,4.2-6.3,6.3c-0.1,0.1-0.2,0.2-0.2,0.2
		c-0.6,0.6-1.4,0.6-1.9,0.1c-0.5-0.5-0.5-1.3,0.1-1.9C5.2,13,6,12.1,6.8,11.3C9.2,8.9,11.5,6.6,13.9,4.2z"/>
	<path class="st1" d="M13,1.6c0.7-0.8,1.5-1.7,2.8-1.6c0.2,0,0.5,0,0.7,0.2C17.9,1,19,2.1,19.8,3.4c0.4,0.8,0.2,1.7-0.3,2.5
		c-0.3,0.4-0.8,0.7-1.1,1.1C16.6,5.2,14.8,3.4,13,1.6z"/>
	<path class="st2" d="M12.2,2.5c0.3,0.3,0.6,0.6,0.9,1c-0.1,0.1-0.2,0.2-0.3,0.3c-3,3-6,6-9,9c-0.1,0.1-0.3,0.4-0.5,0.4
		c-0.3,0-0.6,0-0.8-0.1c-0.1-0.1-0.1-0.5-0.1-0.7c0-0.1,0.2-0.3,0.3-0.4c3.1-3.1,6.1-6.1,9.2-9.2C12,2.7,12.1,2.6,12.2,2.5z"/>
	<path class="st2" d="M17.4,7.9c-2.4,2.4-4.8,4.8-7.2,7.3c-0.7,0.7-1.5,1.5-2.2,2.2c-0.3,0.3-0.7,0.5-1.1,0.1
		c-0.4-0.4-0.2-0.7,0.1-1.1c3.2-3.2,6.3-6.3,9.5-9.6C16.8,7.2,17.1,7.5,17.4,7.9z"/>
	<path class="st1" d="M1.5,13.8c0.4,0.2,0.8,0.4,1.2,0.6c0.2,2,0.9,2.6,2.8,2.8c0.2,0.4,0.4,0.8,0.6,1.2c-2,0.5-4,1-6.1,1.5
		C0.5,17.9,1,15.9,1.5,13.8z"/>
</g>
</svg>
