<?xml version="1.0" encoding="utf-8"?>
<!-- Generator: Adobe Illustrator 23.0.1, SVG Export Plug-In . SVG Version: 6.00 Build 0)  -->
<svg version="1.1" id="Layer_1" xmlns="http://www.w3.org/2000/svg" xmlns:xlink="http://www.w3.org/1999/xlink" x="0px" y="0px"
	 viewBox="0 0 134.6 134" style="enable-background:new 0 0 134.6 134;" xml:space="preserve">
<style type="text/css">
	.st0{fill:#00A551;}
	.st1{fill:#F05A28;}
	.st2{fill:#00ADEE;}
</style>
<g>
	<path class="st0" d="M93.3,28c4.3,4.4,8.2,8.5,12.5,13c-6.6,6.5-13.4,13.2-20.2,20C71.5,75,57.3,89.1,43.2,103.2
		c-0.5,0.5-1.1,1.1-1.6,1.6c-4.4,4.1-9.5,4.3-13.1,0.5c-3.5-3.6-3.3-8.8,0.7-12.8c5.5-5.6,11.1-11.2,16.7-16.8
		C61.7,59.9,77.5,44,93.3,28z"/>
	<path class="st1" d="M87.8,10.6c5-5.4,9.9-11.4,18.7-10.6c1.7,0.2,3.6,0.2,4.9,1c9.1,5.3,16.6,12.4,21.6,21.6
		c3,5.5,1.6,11.6-2.3,16.5c-2.2,2.7-5.1,4.8-7.6,7.2C111.5,34.6,99.8,22.8,87.8,10.6z"/>
	<path class="st2" d="M82.1,16.5c2,2.2,3.8,4.2,5.9,6.5c-0.6,0.6-1.2,1.4-1.9,2.1C65.9,45.4,45.6,65.6,25.3,85.8c-1,1-2,2.4-3.1,2.6
		c-1.7,0.3-4.1,0.2-5.3-0.8c-1-0.8-0.9-3.3-0.8-5c0.1-0.9,1.2-1.8,1.9-2.5c20.7-20.7,41.4-41.3,62.1-62
		C80.6,17.7,81.2,17.2,82.1,16.5z"/>
	<path class="st2" d="M117.3,52.6c-16.1,16.2-32.4,32.5-48.6,48.8c-5,5-10.1,10-15.1,15.1c-2.3,2.3-4.9,3.1-7.3,0.7
		c-2.5-2.5-1.5-5,0.8-7.3c21.3-21.4,42.5-42.7,64-64.4C113.3,48,115.2,50.1,117.3,52.6z"/>
	<path class="st1" d="M10.3,92.8c3,1.6,5.4,2.9,7.9,4.3c1.6,13.5,6,17.8,19,18.6c1.3,2.6,2.6,5.2,4.1,8.1C27.8,127,14.3,130.4,0,134
		C3.5,119.9,6.9,106.4,10.3,92.8z"/>
</g>
</svg>
